<mxfile host="drawio-plugin" modified="2021-10-19T22:06:02.785Z" agent="5.0 (X11; Linux x86_64) AppleWebKit/537.36 (KHTML, like Gecko) Chrome/87.0.4280.141 Safari/537.36" etag="psUgkQ3yH3wodWzq20IL" version="14.7.4" type="embed"><diagram id="mBz3AGuGxKc1HoNxblct" name="team"><mxGraphModel dx="1770" dy="720" grid="1" gridSize="10" guides="1" tooltips="1" connect="1" arrows="1" fold="1" page="1" pageScale="1" pageWidth="850" pageHeight="1100" math="0" shadow="0"><root><mxCell id="0"/><mxCell id="1" parent="0"/><mxCell id="2" value="intern" style="rounded=0;whiteSpace=wrap;html=1;fontStyle=1" parent="1" vertex="1"><mxGeometry x="40" y="440" width="110" height="40" as="geometry"/></mxCell><mxCell id="3" value="junior" style="rounded=0;whiteSpace=wrap;html=1;fillColor=#ffff88;strokeColor=#36393d;fontStyle=1" parent="1" vertex="1"><mxGeometry x="40" y="480" width="110" height="40" as="geometry"/></mxCell><mxCell id="4" value="senior" style="rounded=0;whiteSpace=wrap;html=1;strokeColor=#36393d;fontStyle=1;fillColor=#808080;" parent="1" vertex="1"><mxGeometry x="40" y="600" width="110" height="40" as="geometry"/></mxCell><mxCell id="5" value="regular" style="rounded=0;whiteSpace=wrap;html=1;fillColor=#cdeb8b;strokeColor=#36393d;fontStyle=1;" parent="1" vertex="1"><mxGeometry x="40" y="520" width="110" height="40" as="geometry"/></mxCell><mxCell id="6" value="regular 2" style="rounded=0;whiteSpace=wrap;html=1;strokeColor=#36393d;fontStyle=1;fillColor=#FFCC99;" parent="1" vertex="1"><mxGeometry x="40" y="560" width="110" height="40" as="geometry"/></mxCell><mxCell id="26" value="" style="group" parent="1" vertex="1" connectable="0"><mxGeometry x="360" y="280" width="120" height="80" as="geometry"/></mxCell><mxCell id="27" value="stefan" style="rounded=0;whiteSpace=wrap;html=1;fillColor=#ffff88;strokeColor=#36393d;fontStyle=1" parent="26" vertex="1"><mxGeometry y="40" width="119.99999999999999" height="40" as="geometry"/></mxCell><mxCell id="28" value="patent-app" style="rounded=0;whiteSpace=wrap;html=1;fontStyle=1" parent="26" vertex="1"><mxGeometry width="119.99999999999999" height="40" as="geometry"/></mxCell><mxCell id="41" value="3000" style="rounded=0;whiteSpace=wrap;html=1;fontStyle=1" parent="1" vertex="1"><mxGeometry x="150" y="440" width="50" height="40" as="geometry"/></mxCell><mxCell id="42" value="4000" style="rounded=0;whiteSpace=wrap;html=1;fontStyle=1" parent="1" vertex="1"><mxGeometry x="150" y="480" width="50" height="40" as="geometry"/></mxCell><mxCell id="43" value="6000" style="rounded=0;whiteSpace=wrap;html=1;fontStyle=1" parent="1" vertex="1"><mxGeometry x="150" y="520" width="50" height="40" as="geometry"/></mxCell><mxCell id="44" value="15000" style="rounded=0;whiteSpace=wrap;html=1;fontStyle=1" parent="1" vertex="1"><mxGeometry x="150" y="600" width="50" height="40" as="geometry"/></mxCell><mxCell id="45" value="10000" style="rounded=0;whiteSpace=wrap;html=1;fontStyle=1" parent="1" vertex="1"><mxGeometry x="150" y="560" width="50" height="40" as="geometry"/></mxCell><mxCell id="56" value="designer" style="rounded=0;whiteSpace=wrap;html=1;fillColor=#ffcd28;strokeColor=#d79b00;fontStyle=1;gradientColor=#ffa500;" parent="1" vertex="1"><mxGeometry x="240" y="440" width="110" height="40" as="geometry"/></mxCell><mxCell id="57" value="5000" style="rounded=0;whiteSpace=wrap;html=1;fontStyle=1" parent="1" vertex="1"><mxGeometry x="350" y="440" width="50" height="40" as="geometry"/></mxCell><mxCell id="58" value="tester" style="rounded=0;whiteSpace=wrap;html=1;fillColor=#d5e8d4;strokeColor=#82b366;fontStyle=1;gradientColor=#97d077;" parent="1" vertex="1"><mxGeometry x="240" y="480" width="110" height="40" as="geometry"/></mxCell><mxCell id="59" value="5000" style="rounded=0;whiteSpace=wrap;html=1;fontStyle=1" parent="1" vertex="1"><mxGeometry x="350" y="480" width="50" height="40" as="geometry"/></mxCell><mxCell id="87" value="" style="group" parent="1" vertex="1" connectable="0"><mxGeometry x="680" y="280" width="120" height="80" as="geometry"/></mxCell><mxCell id="88" value="catalina" style="rounded=0;whiteSpace=wrap;html=1;fillColor=#cdeb8b;strokeColor=#36393d;fontStyle=1;" parent="87" vertex="1"><mxGeometry y="40" width="119.99999999999999" height="40" as="geometry"/></mxCell><mxCell id="89" value="travel-app" style="rounded=0;whiteSpace=wrap;html=1;fontStyle=1" parent="87" vertex="1"><mxGeometry width="119.99999999999999" height="40" as="geometry"/></mxCell><mxCell id="90" value="" style="group" parent="1" vertex="1" connectable="0"><mxGeometry x="520" y="280" width="120" height="80" as="geometry"/></mxCell><mxCell id="91" value="cristi" style="rounded=0;whiteSpace=wrap;html=1;fillColor=#cdeb8b;strokeColor=#36393d;fontStyle=1;" parent="90" vertex="1"><mxGeometry y="40" width="119.99999999999999" height="40" as="geometry"/></mxCell><mxCell id="92" value="task-app" style="rounded=0;whiteSpace=wrap;html=1;fontStyle=1" parent="90" vertex="1"><mxGeometry width="119.99999999999999" height="40" as="geometry"/></mxCell><mxCell id="93" value="" style="group" parent="1" vertex="1" connectable="0"><mxGeometry x="40" y="280" width="120" height="80" as="geometry"/></mxCell><mxCell id="94" value="brebenel" style="rounded=0;whiteSpace=wrap;html=1;strokeColor=#36393d;fontStyle=1;fillColor=#FFCC99;" parent="93" vertex="1"><mxGeometry y="40" width="119.99999999999999" height="40" as="geometry"/></mxCell><mxCell id="95" value="cake-shop" style="rounded=0;whiteSpace=wrap;html=1;fontStyle=1" parent="93" vertex="1"><mxGeometry width="119.99999999999999" height="40" as="geometry"/></mxCell><mxCell id="96" value="" style="group" parent="1" vertex="1" connectable="0"><mxGeometry x="200" y="280" width="120" height="80" as="geometry"/></mxCell><mxCell id="97" value="david" style="rounded=0;whiteSpace=wrap;html=1;strokeColor=#36393d;fontStyle=1;fillColor=#808080;" parent="96" vertex="1"><mxGeometry y="40" width="120" height="40" as="geometry"/></mxCell><mxCell id="98" value="hr-app" style="rounded=0;whiteSpace=wrap;html=1;fontStyle=1" parent="96" vertex="1"><mxGeometry width="120" height="40" as="geometry"/></mxCell><mxCell id="116" value="" style="group;fillColor=#d5e8d4;strokeColor=#82b366;" parent="1" vertex="1" connectable="0"><mxGeometry x="40" y="40" width="120" height="200" as="geometry"/></mxCell><mxCell id="65" value="madalina" style="rounded=0;whiteSpace=wrap;html=1;fillColor=#cdeb8b;strokeColor=#36393d;fontStyle=1;" parent="116" vertex="1"><mxGeometry y="80" width="119.99999999999999" height="40" as="geometry"/></mxCell><mxCell id="66" value="mihaela" style="rounded=0;whiteSpace=wrap;html=1;fillColor=#cdeb8b;strokeColor=#36393d;fontStyle=1;" parent="116" vertex="1"><mxGeometry y="120" width="119.99999999999999" height="40" as="geometry"/></mxCell><mxCell id="67" value="dana" style="rounded=0;whiteSpace=wrap;html=1;strokeColor=#36393d;fontStyle=1;fillColor=#FFCC99;" parent="116" vertex="1"><mxGeometry y="160" width="119.99999999999999" height="40" as="geometry"/></mxCell><mxCell id="76" value="Soul" style="rounded=0;whiteSpace=wrap;html=1;fontStyle=1;gradientColor=#d5739d;fillColor=#e6d0de;strokeColor=#996185;" parent="116" vertex="1"><mxGeometry y="40" width="119.99999999999999" height="40" as="geometry"/></mxCell><mxCell id="80" value="animal-app" style="rounded=0;whiteSpace=wrap;html=1;fontStyle=1;container=1;" parent="116" vertex="1"><mxGeometry width="119.99999999999999" height="40" as="geometry"/></mxCell><mxCell id="117" value="" style="group" parent="1" vertex="1" connectable="0"><mxGeometry x="200" y="40" width="120" height="160" as="geometry"/></mxCell><mxCell id="74" value="ionut" style="rounded=0;whiteSpace=wrap;html=1;strokeColor=#36393d;fontStyle=1;fillColor=#808080;" parent="117" vertex="1"><mxGeometry y="120" width="120" height="40" as="geometry"/></mxCell><mxCell id="75" value="vlad" style="rounded=0;whiteSpace=wrap;html=1;fillColor=#cdeb8b;strokeColor=#36393d;fontStyle=1;" parent="117" vertex="1"><mxGeometry y="80" width="120" height="40" as="geometry"/></mxCell><mxCell id="79" value="Ares" style="rounded=0;whiteSpace=wrap;html=1;fontStyle=1;gradientColor=#d5739d;fillColor=#e6d0de;strokeColor=#996185;" parent="117" vertex="1"><mxGeometry y="40" width="120" height="40" as="geometry"/></mxCell><mxCell id="83" value="mica-piata" style="rounded=0;whiteSpace=wrap;html=1;fontStyle=1" parent="117" vertex="1"><mxGeometry width="120" height="40" as="geometry"/></mxCell><mxCell id="118" value="" style="group" parent="1" vertex="1" connectable="0"><mxGeometry x="359" y="40" width="122" height="200" as="geometry"/></mxCell><mxCell id="71" value="giani" style="rounded=0;whiteSpace=wrap;html=1;strokeColor=#36393d;fontStyle=1;fillColor=#808080;" parent="118" vertex="1"><mxGeometry y="160" width="122" height="40" as="geometry"/></mxCell><mxCell id="72" value="george" style="rounded=0;whiteSpace=wrap;html=1;fillColor=#cdeb8b;strokeColor=#36393d;fontStyle=1;" parent="118" vertex="1"><mxGeometry y="120" width="122" height="40" as="geometry"/></mxCell><mxCell id="73" value="ana" style="rounded=0;whiteSpace=wrap;html=1;fillColor=#ffff88;strokeColor=#36393d;fontStyle=1" parent="118" vertex="1"><mxGeometry y="80" width="122" height="40" as="geometry"/></mxCell><mxCell id="78" value="Enigma" style="rounded=0;whiteSpace=wrap;html=1;fontStyle=1;gradientColor=#d5739d;fillColor=#e6d0de;strokeColor=#996185;" parent="118" vertex="1"><mxGeometry y="40" width="122" height="40" as="geometry"/></mxCell><mxCell id="82" value="my-home" style="rounded=0;whiteSpace=wrap;html=1;fontStyle=1" parent="118" vertex="1"><mxGeometry width="122" height="40" as="geometry"/></mxCell><mxCell id="119" value="" style="group" parent="1" vertex="1" connectable="0"><mxGeometry x="520" y="40" width="120" height="200" as="geometry"/></mxCell><mxCell id="68" value="florentina" style="rounded=0;whiteSpace=wrap;html=1;fillColor=#ffff88;strokeColor=#36393d;fontStyle=1" parent="119" vertex="1"><mxGeometry y="80" width="119.99999999999999" height="40" as="geometry"/></mxCell><mxCell id="69" value="ioan" style="rounded=0;whiteSpace=wrap;html=1;fillColor=#cdeb8b;strokeColor=#36393d;fontStyle=1;" parent="119" vertex="1"><mxGeometry y="160" width="119.99999999999999" height="40" as="geometry"/></mxCell><mxCell id="70" value="alin" style="rounded=0;whiteSpace=wrap;html=1;fillColor=#ffff88;strokeColor=#36393d;fontStyle=1" parent="119" vertex="1"><mxGeometry y="120" width="119.99999999999999" height="40" as="geometry"/></mxCell><mxCell id="77" value="Vega" style="rounded=0;whiteSpace=wrap;html=1;fontStyle=1;gradientColor=#d5739d;fillColor=#e6d0de;strokeColor=#996185;" parent="119" vertex="1"><mxGeometry y="40" width="119.99999999999999" height="40" as="geometry"/></mxCell><mxCell id="81" value="welness-app" style="rounded=0;whiteSpace=wrap;html=1;fontStyle=1" parent="119" vertex="1"><mxGeometry width="119.99999999999999" height="40" as="geometry"/></mxCell><mxCell id="120" value="" style="group;movable=0;resizable=0;rotatable=0;deletable=0;editable=0;connectable=0;" parent="1" vertex="1" connectable="0"><mxGeometry x="680" y="40" width="120" height="120" as="geometry"/></mxCell><mxCell id="121" value="" style="verticalLabelPosition=bottom;verticalAlign=top;html=1;shape=mxgraph.basic.star;fillColor=#fff2cc;strokeColor=#d6b656;gradientColor=#ffd966;" parent="1" vertex="1"><mxGeometry x="680" y="440" width="40" height="40" as="geometry"/></mxCell><mxCell id="129" value="" style="group;container=1;" parent="1" vertex="1" connectable="0"><mxGeometry x="440" y="440" width="160" height="160" as="geometry"/></mxCell><mxCell id="46" value="product owner" style="rounded=0;whiteSpace=wrap;html=1;fillColor=#dae8fc;strokeColor=#6c8ebf;fontStyle=1;gradientColor=#7ea6e0;" parent="129" vertex="1"><mxGeometry width="120" height="40" as="geometry"/></mxCell><mxCell id="132" value="" style="group;container=1;" vertex="1" connectable="0" parent="129"><mxGeometry width="160" height="160" as="geometry"/></mxCell><mxCell id="127" value="" style="group;container=1;" parent="132" vertex="1" connectable="0"><mxGeometry x="120" width="40" height="160" as="geometry"/></mxCell><mxCell id="48" value="8000" style="rounded=0;whiteSpace=wrap;html=1;fontStyle=1" parent="127" vertex="1"><mxGeometry width="40" height="40" as="geometry"/></mxCell><mxCell id="50" value="8000" style="rounded=0;whiteSpace=wrap;html=1;fontStyle=1" parent="127" vertex="1"><mxGeometry y="40" width="40" height="40" as="geometry"/></mxCell><mxCell id="52" value="10000" style="rounded=0;whiteSpace=wrap;html=1;fontStyle=1" parent="127" vertex="1"><mxGeometry y="120" width="40" height="40" as="geometry"/></mxCell><mxCell id="123" value="15000" style="rounded=0;whiteSpace=wrap;html=1;fontStyle=1" parent="127" vertex="1"><mxGeometry y="80" width="40" height="40" as="geometry"/></mxCell><mxCell id="128" value="" style="group;container=1;" parent="132" vertex="1" connectable="0"><mxGeometry y="40" width="120" height="120" as="geometry"/></mxCell><mxCell id="49" value="scrum master" style="rounded=0;whiteSpace=wrap;html=1;fillColor=#e6d0de;strokeColor=#996185;fontStyle=1;gradientColor=#d5739d;" parent="128" vertex="1"><mxGeometry width="119.99999999999999" height="40" as="geometry"/></mxCell><mxCell id="51" value="manager" style="rounded=0;whiteSpace=wrap;html=1;fillColor=#f8cecc;strokeColor=#b85450;fontStyle=1;gradientColor=#ea6b66;" parent="128" vertex="1"><mxGeometry y="80" width="119.99999999999999" height="40" as="geometry"/></mxCell><mxCell id="122" value="agile coach" style="rounded=0;whiteSpace=wrap;html=1;fillColor=#b0e3e6;strokeColor=#0e8088;fontStyle=1;" parent="128" vertex="1"><mxGeometry y="40" width="119.99999999999999" height="40" as="geometry"/></mxCell><mxCell id="131" value="" style="group" parent="1" vertex="1" connectable="0"><mxGeometry x="680" y="40" width="130" height="200" as="geometry"/></mxCell><mxCell id="53" value="cosmin" style="rounded=0;whiteSpace=wrap;html=1;fontStyle=1;" parent="131" vertex="1"><mxGeometry width="130" height="40" as="geometry"/></mxCell><mxCell id="130" value="" style="group;container=1;" parent="131" vertex="1" connectable="0"><mxGeometry y="40" width="130" height="120" as="geometry"/></mxCell><mxCell id="124" value="product owner" style="rounded=0;whiteSpace=wrap;html=1;fillColor=#dae8fc;strokeColor=#6c8ebf;fontStyle=1;gradientColor=#7ea6e0;" parent="130" vertex="1"><mxGeometry width="130" height="40" as="geometry"/></mxCell><mxCell id="126" value="agile coach" style="rounded=0;whiteSpace=wrap;html=1;fillColor=#b0e3e6;strokeColor=#0e8088;fontStyle=1;" parent="130" vertex="1"><mxGeometry y="40" width="130" height="40" as="geometry"/></mxCell><mxCell id="133" value="business analyst" style="rounded=0;whiteSpace=wrap;html=1;fillColor=#f5f5f5;strokeColor=#666666;fontStyle=1;fontColor=#333333;" vertex="1" parent="1"><mxGeometry x="440" y="600" width="119.99999999999999" height="40" as="geometry"/></mxCell><mxCell id="134" value="8000" style="rounded=0;whiteSpace=wrap;html=1;fontStyle=1" vertex="1" parent="1"><mxGeometry x="560" y="600" width="40" height="40" as="geometry"/></mxCell></root></mxGraphModel></diagram></mxfile>